<?xml version="1.0" encoding="UTF-8"?>
<svg width="190px" height="29px" viewBox="0 0 190 29" version="1.1" xmlns="http://www.w3.org/2000/svg" xmlns:xlink="http://www.w3.org/1999/xlink">
    <title>D349CF2A-B2A8-4E49-97DB-B4D512004D2B@1x</title>
    <defs>
        <polygon id="path-1" points="0 27.0325203 189.829309 27.0325203 189.829309 0.0625609756 0 0.0625609756"></polygon>
    </defs>
    <g id="emotiva" stroke="none" stroke-width="1" fill="none" fill-rule="evenodd">
        <g id="home3" transform="translate(-41.000000, -55.000000)">
            <g id="header" transform="translate(1.000000, 0.000000)">
                <g id="emotiva" transform="translate(40.000000, 55.000000)">
                    <polygon id="Fill-1" fill="#231F20" points="33.8469553 21.8313862 31.516752 21.8313862 31.516752 1.86671138 33.4800854 1.86671138 46.9569553 8.41244309 59.6189878 2.03508537 61.8572805 2.03508537 61.8572805 21.8313862 59.7093537 21.8313862 59.7093537 3.61996341 46.6874024 10.0243537 33.8469553 3.87329675"></polygon>
                    <polygon id="Stroke-2" stroke="#231F20" stroke-width="0.25" points="33.8469553 21.8313862 31.516752 21.8313862 31.516752 1.86671138 33.4800854 1.86671138 46.9569553 8.41244309 59.6189878 2.03508537 61.8572805 2.03508537 61.8572805 21.8313862 59.7093537 21.8313862 59.7093537 3.61996341 46.6874024 10.0243537 33.8469553 3.87329675"></polygon>
                    <g id="Group-24" transform="translate(0.000000, 0.710106)">
                        <path d="M81.9386585,0.740922764 C84.2418293,0.740922764 86.428374,1.00970325 88.4975203,1.54494715 C90.5643496,2.08250813 92.3770732,2.82937805 93.9356911,3.78632927 C95.4927642,4.74173577 96.7076829,5.85161382 97.5827642,7.1144187 C98.4555285,8.37722358 98.8934553,9.71494715 98.8934553,11.1283618 C98.8934553,12.9735244 98.1365447,14.691248 96.6188618,16.2799878 C95.0996341,17.8679553 93.037439,19.1268984 90.4253252,20.0583618 C87.8155285,20.9898252 84.9871545,21.4571016 81.9386585,21.4571016 C78.9102439,21.4571016 76.0996341,20.9898252 73.5076016,20.0568171 C70.9163415,19.1207195 68.8634146,17.8617764 67.3519106,16.276126 C65.8373171,14.6889309 65.0804065,12.9735244 65.0804065,11.1283618 C65.0804065,9.26157317 65.8373171,7.52994715 67.3519106,5.93348374 C68.8634146,4.3393374 70.9163415,3.07421545 73.5076016,2.14120732 C76.0996341,1.20742683 78.9102439,0.740922764 81.9386585,0.740922764 M81.941748,1.93730488 C79.2863821,1.93730488 76.8217886,2.34897154 74.544878,3.17462195 C72.2695122,4.00027236 70.4660569,5.11787398 69.1345122,6.5297439 C67.8029675,7.94161382 67.1356504,9.47551626 67.1356504,11.1306789 C67.1356504,12.7796626 67.8029675,14.3089309 69.1345122,15.7184837 C70.4660569,17.1288089 72.2679675,18.2471829 74.5386992,19.074378 C76.811748,19.9015732 79.2786585,20.3155569 81.941748,20.3155569 C84.6287805,20.3155569 87.115,19.9000285 89.405813,19.0705163 C91.6981707,18.2410041 93.5078049,17.1226301 94.840122,15.714622 C96.1716667,14.3066138 96.837439,12.7796626 96.837439,11.1306789 C96.837439,9.47551626 96.1716667,7.94161382 94.840122,6.5297439 C93.5078049,5.11787398 91.6958537,4.00027236 89.4019512,3.17462195 C87.1072764,2.34897154 84.6210569,1.93730488 81.941748,1.93730488" id="Fill-3" fill="#231F20"></path>
                        <path d="M81.9386585,0.740922764 C84.2418293,0.740922764 86.428374,1.00970325 88.4975203,1.54494715 C90.5643496,2.08250813 92.3770732,2.82937805 93.9356911,3.78632927 C95.4927642,4.74173577 96.7076829,5.85161382 97.5827642,7.1144187 C98.4555285,8.37722358 98.8934553,9.71494715 98.8934553,11.1283618 C98.8934553,12.9735244 98.1365447,14.691248 96.6188618,16.2799878 C95.0996341,17.8679553 93.037439,19.1268984 90.4253252,20.0583618 C87.8155285,20.9898252 84.9871545,21.4571016 81.9386585,21.4571016 C78.9102439,21.4571016 76.0996341,20.9898252 73.5076016,20.0568171 C70.9163415,19.1207195 68.8634146,17.8617764 67.3519106,16.276126 C65.8373171,14.6889309 65.0804065,12.9735244 65.0804065,11.1283618 C65.0804065,9.26157317 65.8373171,7.52994715 67.3519106,5.93348374 C68.8634146,4.3393374 70.9163415,3.07421545 73.5076016,2.14120732 C76.0996341,1.20742683 78.9102439,0.740922764 81.9386585,0.740922764 Z M81.941748,1.93730488 C79.2863821,1.93730488 76.8217886,2.34897154 74.544878,3.17462195 C72.2695122,4.00027236 70.4660569,5.11787398 69.1345122,6.5297439 C67.8029675,7.94161382 67.1356504,9.47551626 67.1356504,11.1306789 C67.1356504,12.7796626 67.8029675,14.3089309 69.1345122,15.7184837 C70.4660569,17.1288089 72.2679675,18.2471829 74.5386992,19.074378 C76.811748,19.9015732 79.2786585,20.3155569 81.941748,20.3155569 C84.6287805,20.3155569 87.115,19.9000285 89.405813,19.0705163 C91.6981707,18.2410041 93.5078049,17.1226301 94.840122,15.714622 C96.1716667,14.3066138 96.837439,12.7796626 96.837439,11.1306789 C96.837439,9.47551626 96.1716667,7.94161382 94.840122,6.5297439 C93.5078049,5.11787398 91.6958537,4.00027236 89.4019512,3.17462195 C87.1072764,2.34897154 84.6210569,1.93730488 81.941748,1.93730488 Z" id="Stroke-5" stroke="#231F20" stroke-width="0.25"></path>
                        <polygon id="Fill-7" fill="#231F20" points="95.7928252 1.26852033 120.23563 1.26852033 120.23563 2.35445528 108.997053 2.35445528 108.997053 21.1783577 107.032175 21.1783577 107.032175 2.35445528 95.7928252 2.35445528"></polygon>
                        <polygon id="Stroke-9" stroke="#231F20" stroke-width="0.25" points="95.7928252 1.26852033 120.23563 1.26852033 120.23563 2.35445528 108.997053 2.35445528 108.997053 21.1783577 107.032175 21.1783577 107.032175 2.35445528 95.7928252 2.35445528"></polygon>
                        <mask id="mask-2" fill="white">
                            <use xlink:href="#path-1"></use>
                        </mask>
                        <g id="Clip-12"></g>
                        <polygon id="Fill-11" fill="#231F20" mask="url(#mask-2)" points="126.103618 21.1208943 128.158862 21.1208943 128.158862 1.21337398 126.103618 1.21337398"></polygon>
                        <polygon id="Stroke-13" stroke="#231F20" stroke-width="0.25" mask="url(#mask-2)" points="126.103618 21.1208943 128.158862 21.1208943 128.158862 1.21337398 126.103618 1.21337398"></polygon>
                        <polygon id="Fill-14" fill="#231F20" mask="url(#mask-2)" points="133.271793 1.10184553 146.021874 18.5586748 158.771183 1.15668293 161.188663 1.15668293 145.930736 21.7083496 130.940817 1.10184553"></polygon>
                        <polygon id="Stroke-15" stroke="#231F20" stroke-width="0.25" mask="url(#mask-2)" points="133.271793 1.10184553 146.021874 18.5586748 158.771183 1.15668293 161.188663 1.15668293 145.930736 21.7083496 130.940817 1.10184553"></polygon>
                        <path d="M162.223159,21.1212805 L162.223159,8.73189024 C162.223159,7.15936992 162.769988,5.75522358 163.865191,4.51945122 C164.95885,3.28445122 166.455679,2.3275 168.354907,1.64859756 C170.254134,0.968150407 172.371167,0.629085366 174.696736,0.629085366 C176.399012,0.642987805 178.000882,0.839166667 179.494622,1.21684959 C180.989907,1.59607724 182.303687,2.12359756 183.432874,2.80404472 C184.562833,3.48449187 185.445638,4.28851626 186.081289,5.21611789 C186.716939,6.14526423 187.034378,7.15164634 187.034378,8.23603659 L187.034378,21.178435 L184.980679,21.178435 L184.980679,8.92652439 L164.188037,8.92652439 L164.188037,21.1212805 L162.223159,21.1212805 Z M164.468402,7.70079268 L184.980679,7.70079268 C184.89263,6.60481707 184.356614,5.60229675 183.374175,4.69091463 C182.390191,3.78030488 181.122752,3.06046748 179.562589,2.53371951 C178.007061,2.00542683 176.383565,1.73278455 174.695963,1.71579268 C173.074785,1.71579268 171.483728,1.97993902 169.920476,2.51363821 C168.358768,3.04502033 167.078199,3.77103659 166.080313,4.68628049 C165.079337,5.60461382 164.544093,6.61022358 164.468402,7.70079268 L164.468402,7.70079268 Z" id="Fill-16" fill="#231F20" mask="url(#mask-2)"></path>
                        <path d="M162.223159,21.1212805 L162.223159,8.73189024 C162.223159,7.15936992 162.769988,5.75522358 163.865191,4.51945122 C164.95885,3.28445122 166.455679,2.3275 168.354907,1.64859756 C170.254134,0.968150407 172.371167,0.629085366 174.696736,0.629085366 C176.399012,0.642987805 178.000882,0.839166667 179.494622,1.21684959 C180.989907,1.59607724 182.303687,2.12359756 183.432874,2.80404472 C184.562833,3.48449187 185.445638,4.28851626 186.081289,5.21611789 C186.716939,6.14526423 187.034378,7.15164634 187.034378,8.23603659 L187.034378,21.178435 L184.980679,21.178435 L184.980679,8.92652439 L164.188037,8.92652439 L164.188037,21.1212805 L162.223159,21.1212805 Z M164.468402,7.70079268 L184.980679,7.70079268 C184.89263,6.60481707 184.356614,5.60229675 183.374175,4.69091463 C182.390191,3.78030488 181.122752,3.06046748 179.562589,2.53371951 C178.007061,2.00542683 176.383565,1.73278455 174.695963,1.71579268 C173.074785,1.71579268 171.483728,1.97993902 169.920476,2.51363821 C168.358768,3.04502033 167.078199,3.77103659 166.080313,4.68628049 C165.079337,5.60461382 164.544093,6.61022358 164.468402,7.70079268 Z" id="Stroke-17" stroke="#231F20" stroke-width="0.25" mask="url(#mask-2)"></path>
                        <polygon id="Fill-18" fill="#231F20" mask="url(#mask-2)" points="7.96092276 8.8635 12.2258821 8.8635 16.5225081 8.8635 21.8154756 8.8635 27.1045813 8.8635 32.4469797 8.8635 37.7376301 8.8635 37.7376301 7.52654878 33.5074268 7.52654878 29.2424675 7.52654878 24.910313 7.52654878 20.5642561 7.52654878 14.9322236 7.52654878 9.29632927 7.52654878"></polygon>
                        <polygon id="Stroke-19" stroke="#231F20" stroke-width="0.25" mask="url(#mask-2)" points="7.96092276 8.8635 12.2258821 8.8635 16.5225081 8.8635 21.8154756 8.8635 27.1045813 8.8635 32.4469797 8.8635 37.7376301 8.8635 37.7376301 7.52654878 33.5074268 7.52654878 29.2424675 7.52654878 24.910313 7.52654878 20.5642561 7.52654878 14.9322236 7.52654878 9.29632927 7.52654878"></polygon>
                        <polygon id="Fill-20" fill="#231F20" mask="url(#mask-2)" points="26.026061 25.5924593 21.7842724 25.3846951 17.5718333 24.7320528 13.4868333 23.5673374 11.1558577 22.6157927 8.93919106 21.4294512 6.87622358 19.9333943 5.12297154 18.0959553 4.41703659 17.0185163 3.87406911 15.8561179 3.53268699 14.5971748 3.44618293 13.2988415 3.58752439 12.2067276 3.90496341 11.1501423 4.55683333 9.8325 5.41183333 8.6376626 6.96041057 7.08831301 8.73528862 5.79229675 10.994435 4.55111789 13.3887439 3.55477642 15.8595163 2.77623984 19.2015081 2.04481707 22.608378 1.63160569 26.026061 1.50184959 26.026061 0.162581301 22.2847602 0.297743902 18.5388252 0.720995935 14.8523618 1.46014228 11.270939 2.5429878 9.03728049 3.43351626 6.88780894 4.51172764 4.87427236 5.80388211 3.38980081 7.02189024 2.08142683 8.42835366 1.21329675 9.68729675 0.552158537 11.0698171 0.216182927 12.2893699 0.0972398374 13.5475407 0.226223577 14.8582317 0.589231707 16.1225813 1.29671138 17.5483537 2.22508537 18.8490041 3.93276829 20.556687 5.88992276 21.9886382 8.40626423 23.3750203 11.0693537 24.4903049 13.8204919 25.3630691 17.8305732 26.2590041 21.921752 26.7687602 26.026061 26.9317276"></polygon>
                        <polygon id="Stroke-21" stroke="#231F20" stroke-width="0.25" mask="url(#mask-2)" points="26.026061 25.5924593 21.7842724 25.3846951 17.5718333 24.7320528 13.4868333 23.5673374 11.1558577 22.6157927 8.93919106 21.4294512 6.87622358 19.9333943 5.12297154 18.0959553 4.41703659 17.0185163 3.87406911 15.8561179 3.53268699 14.5971748 3.44618293 13.2988415 3.58752439 12.2067276 3.90496341 11.1501423 4.55683333 9.8325 5.41183333 8.6376626 6.96041057 7.08831301 8.73528862 5.79229675 10.994435 4.55111789 13.3887439 3.55477642 15.8595163 2.77623984 19.2015081 2.04481707 22.608378 1.63160569 26.026061 1.50184959 26.026061 0.162581301 22.2847602 0.297743902 18.5388252 0.720995935 14.8523618 1.46014228 11.270939 2.5429878 9.03728049 3.43351626 6.88780894 4.51172764 4.87427236 5.80388211 3.38980081 7.02189024 2.08142683 8.42835366 1.21329675 9.68729675 0.552158537 11.0698171 0.216182927 12.2893699 0.0972398374 13.5475407 0.226223577 14.8582317 0.589231707 16.1225813 1.29671138 17.5483537 2.22508537 18.8490041 3.93276829 20.556687 5.88992276 21.9886382 8.40626423 23.3750203 11.0693537 24.4903049 13.8204919 25.3630691 17.8305732 26.2590041 21.921752 26.7687602 26.026061 26.9317276"></polygon>
                        <path d="M187.8625,3.03080894 L188.17376,3.03080894 C188.323598,3.03080894 188.425549,3.00841057 188.478841,2.96438618 C188.532907,2.91958943 188.559939,2.86089024 188.559939,2.78751626 C188.559939,2.74040244 188.547581,2.69792276 188.521321,2.66084959 C188.495061,2.62377642 188.45876,2.59597154 188.412419,2.57820732 C188.366077,2.55967073 188.280346,2.55040244 188.154451,2.55040244 L187.8625,2.55040244 L187.8625,3.03080894 Z M187.605305,3.9267439 L187.605305,2.33491463 L188.152907,2.33491463 C188.339045,2.33491463 188.47498,2.34958943 188.558394,2.37893902 C188.642581,2.40828862 188.709004,2.45926423 188.758435,2.53263821 C188.808638,2.6060122 188.833354,2.68324797 188.833354,2.76589024 C188.833354,2.88251626 188.791646,2.98369512 188.709004,3.07019919 C188.625589,3.15670325 188.515915,3.20458943 188.378435,3.21540244 C188.434045,3.23857317 188.479614,3.26715041 188.513598,3.29958943 C188.577703,3.36215041 188.655711,3.46719106 188.748394,3.61471138 L188.942256,3.9267439 L188.628679,3.9267439 L188.48811,3.67572764 C188.37689,3.47877642 188.287297,3.35519919 188.219329,3.30499593 C188.172215,3.26869512 188.103476,3.25015854 188.01311,3.25015854 L187.8625,3.25015854 L187.8625,3.9267439 L187.605305,3.9267439 Z M188.254858,1.87381707 C188.046321,1.87381707 187.844736,1.92710976 187.647785,2.03369512 C187.450833,2.14028049 187.297134,2.29243496 187.185915,2.49015854 C187.073923,2.68865447 187.019085,2.89487398 187.019085,3.10958943 C187.019085,3.3219878 187.073923,3.5266626 187.182825,3.72206911 C187.2925,3.91747561 187.444654,4.06963008 187.640833,4.17853252 C187.837012,4.28820732 188.040915,4.34304472 188.254858,4.34304472 C188.467256,4.34304472 188.672703,4.28820732 188.868882,4.17853252 C189.065061,4.06963008 189.217215,3.91747561 189.325346,3.72206911 C189.433476,3.5266626 189.487541,3.3219878 189.487541,3.10958943 C189.487541,2.89487398 189.432703,2.68865447 189.322256,2.49015854 C189.211809,2.29243496 189.05811,2.14028049 188.860386,2.03369512 C188.662663,1.92710976 188.461077,1.87381707 188.254858,1.87381707 L188.254858,1.87381707 Z M188.254858,1.62897967 C188.502785,1.62897967 188.746077,1.69231301 188.981646,1.81975203 C189.21876,1.94719106 189.403354,2.12946748 189.535427,2.36735366 C189.6675,2.60446748 189.73315,2.85162195 189.73315,3.10958943 C189.73315,3.36446748 189.668272,3.60930488 189.537744,3.84487398 C189.407988,4.07967073 189.225711,4.26271951 188.990915,4.39247561 C188.756118,4.52300407 188.51128,4.58788211 188.254858,4.58788211 C187.998435,4.58788211 187.752825,4.52300407 187.518028,4.39247561 C187.283232,4.26271951 187.100955,4.07967073 186.970427,3.84487398 C186.839126,3.60930488 186.774248,3.36446748 186.774248,3.10958943 C186.774248,2.85162195 186.840671,2.60446748 186.973516,2.36735366 C187.106362,2.12946748 187.290183,1.94719106 187.526524,1.81975203 C187.763638,1.69231301 188.006159,1.62897967 188.254858,1.62897967 L188.254858,1.62897967 Z" id="Fill-22" fill="#231F20" mask="url(#mask-2)"></path>
                        <path d="M187.8625,3.03080894 L188.17376,3.03080894 C188.323598,3.03080894 188.425549,3.00841057 188.478841,2.96438618 C188.532907,2.91958943 188.559939,2.86089024 188.559939,2.78751626 C188.559939,2.74040244 188.547581,2.69792276 188.521321,2.66084959 C188.495061,2.62377642 188.45876,2.59597154 188.412419,2.57820732 C188.366077,2.55967073 188.280346,2.55040244 188.154451,2.55040244 L187.8625,2.55040244 L187.8625,3.03080894 Z M187.605305,3.9267439 L187.605305,2.33491463 L188.152907,2.33491463 C188.339045,2.33491463 188.47498,2.34958943 188.558394,2.37893902 C188.642581,2.40828862 188.709004,2.45926423 188.758435,2.53263821 C188.808638,2.6060122 188.833354,2.68324797 188.833354,2.76589024 C188.833354,2.88251626 188.791646,2.98369512 188.709004,3.07019919 C188.625589,3.15670325 188.515915,3.20458943 188.378435,3.21540244 C188.434045,3.23857317 188.479614,3.26715041 188.513598,3.29958943 C188.577703,3.36215041 188.655711,3.46719106 188.748394,3.61471138 L188.942256,3.9267439 L188.628679,3.9267439 L188.48811,3.67572764 C188.37689,3.47877642 188.287297,3.35519919 188.219329,3.30499593 C188.172215,3.26869512 188.103476,3.25015854 188.01311,3.25015854 L187.8625,3.25015854 L187.8625,3.9267439 L187.605305,3.9267439 Z M188.254858,1.87381707 C188.046321,1.87381707 187.844736,1.92710976 187.647785,2.03369512 C187.450833,2.14028049 187.297134,2.29243496 187.185915,2.49015854 C187.073923,2.68865447 187.019085,2.89487398 187.019085,3.10958943 C187.019085,3.3219878 187.073923,3.5266626 187.182825,3.72206911 C187.2925,3.91747561 187.444654,4.06963008 187.640833,4.17853252 C187.837012,4.28820732 188.040915,4.34304472 188.254858,4.34304472 C188.467256,4.34304472 188.672703,4.28820732 188.868882,4.17853252 C189.065061,4.06963008 189.217215,3.91747561 189.325346,3.72206911 C189.433476,3.5266626 189.487541,3.3219878 189.487541,3.10958943 C189.487541,2.89487398 189.432703,2.68865447 189.322256,2.49015854 C189.211809,2.29243496 189.05811,2.14028049 188.860386,2.03369512 C188.662663,1.92710976 188.461077,1.87381707 188.254858,1.87381707 Z M188.254858,1.62897967 C188.502785,1.62897967 188.746077,1.69231301 188.981646,1.81975203 C189.21876,1.94719106 189.403354,2.12946748 189.535427,2.36735366 C189.6675,2.60446748 189.73315,2.85162195 189.73315,3.10958943 C189.73315,3.36446748 189.668272,3.60930488 189.537744,3.84487398 C189.407988,4.07967073 189.225711,4.26271951 188.990915,4.39247561 C188.756118,4.52300407 188.51128,4.58788211 188.254858,4.58788211 C187.998435,4.58788211 187.752825,4.52300407 187.518028,4.39247561 C187.283232,4.26271951 187.100955,4.07967073 186.970427,3.84487398 C186.839126,3.60930488 186.774248,3.36446748 186.774248,3.10958943 C186.774248,2.85162195 186.840671,2.60446748 186.973516,2.36735366 C187.106362,2.12946748 187.290183,1.94719106 187.526524,1.81975203 C187.763638,1.69231301 188.006159,1.62897967 188.254858,1.62897967 Z" id="Stroke-23" stroke="#231F20" stroke-width="0.25" mask="url(#mask-2)"></path>
                    </g>
                </g>
            </g>
        </g>
    </g>
</svg>