<?xml version="1.0" encoding="UTF-8"?>
<svg width="14px" height="11px" viewBox="0 0 14 11" version="1.1" xmlns="http://www.w3.org/2000/svg" xmlns:xlink="http://www.w3.org/1999/xlink">
    <title>68792EED-0FD4-442F-9D0A-597BFF131CC7@1x</title>
    <g id="Page-1" stroke="none" stroke-width="1" fill="none" fill-rule="evenodd" stroke-linecap="round" stroke-linejoin="round">
        <g id="collection1" transform="translate(-19.000000, -500.000000)" stroke="#667175" stroke-width="1.6">
            <g id="icon-filter" transform="translate(20.000000, 501.000000)">
                <path d="M3.27272727,1.63636364 C3.27272727,2.54018182 2.54018182,3.27272727 1.63636364,3.27272727 C0.732545455,3.27272727 0,2.54018182 0,1.63636364 C0,0.732545455 0.732545455,0 1.63636364,0 C2.54018182,0 3.27272727,0.732545455 3.27272727,1.63636364 Z" id="Stroke-1"></path>
                <path d="M9.81818182,6.92307692 C9.81818182,7.8268951 9.08563636,8.55944056 8.18181818,8.55944056 C7.278,8.55944056 6.54545455,7.8268951 6.54545455,6.92307692 C6.54545455,6.01925874 7.278,5.28671329 8.18181818,5.28671329 C9.08563636,5.28671329 9.81818182,6.01925874 9.81818182,6.92307692 Z" id="Stroke-3"></path>
                <line x1="12" y1="1.63636364" x2="6" y2="1.63636364" id="Stroke-5"></line>
                <line x1="12" y1="6.92307692" x2="9.81818182" y2="6.92307692" id="Stroke-7"></line>
                <line x1="3.96918301" y1="6.92307692" x2="1.3117712e-14" y2="6.92307692" id="Stroke-9"></line>
            </g>
        </g>
    </g>
</svg>