<?xml version="1.0" encoding="UTF-8"?>
<svg width="14px" height="14px" viewBox="0 0 14 14" version="1.1" xmlns="http://www.w3.org/2000/svg" xmlns:xlink="http://www.w3.org/1999/xlink">
    <title>ED22C5D0-2B06-452E-9231-A72F359F0B01@1x</title>
    <g id="emotiva" stroke="none" stroke-width="1" fill="none" fill-rule="evenodd" opacity="1">
        <g id="home3" transform="translate(-519.000000, -60.000000)" fill="#000000" fill-rule="nonzero">
            <g id="header" transform="translate(1.000000, 0.000000)">
                <g id="icon-search" transform="translate(518.000000, 60.000000)">
                    <path d="M13.8961667,12.18 L10.19025,8.4735 C10.73275,7.61891667 11.046,6.60683333 11.046,5.52241667 C11.0465833,2.478 8.56858333,-1.03620816e-15 5.523,-1.03620816e-15 C2.47741667,-1.03620816e-15 0,2.478 0,5.523 C0,8.56858333 2.47741667,11.0465833 5.523,11.0465833 C6.55433333,11.0465833 7.51858333,10.7625 8.34575,10.269 L12.07675,14 L13.8961667,12.18 Z M2.058,5.523 C2.058,3.61375 3.61258333,2.05916667 5.52241667,2.05916667 C7.43283333,2.05916667 8.98741667,3.61316667 8.98741667,5.523 C8.98741667,7.43341667 7.43283333,8.98741667 5.52241667,8.98741667 C3.61258333,8.98741667 2.058,7.43341667 2.058,5.523 Z" id="Shape"></path>
                </g>
            </g>
        </g>
    </g>
</svg>