<?xml version="1.0" encoding="UTF-8"?>
<svg width="28px" height="28px" viewBox="0 0 28 28" version="1.1" xmlns="http://www.w3.org/2000/svg" xmlns:xlink="http://www.w3.org/1999/xlink">
    <title>F42BC379-4C60-4879-9B32-B66B6292E9DB</title>
    <g id="Page-1" stroke="none" stroke-width="1" fill="none" fill-rule="evenodd">
        <g id="home" transform="translate(-85.000000, -926.000000)">
            <g id="icon-5years" transform="translate(85.000000, 926.000000)">
                <rect id="Rectangle" stroke="#000000" stroke-width="3.2" x="1.6" y="1.6" width="24.8" height="24.8"></rect>
                <path d="M19.2388235,16.0435294 C19.2388235,13.1035294 17.3588235,10.9435294 14.3388235,10.9435294 C13.7188235,10.9435294 13.1588235,11.0835294 12.6388235,11.3635294 L13.2188235,9.26352941 L18.7588235,9.26352941 L18.7588235,6.62352941 L11.1788235,6.62352941 L9.39882353,13.7835294 L11.7788235,14.4035294 C11.9988235,13.7635294 12.9388235,13.2035294 13.8988235,13.2035294 C15.6388235,13.2035294 16.6988235,14.2635294 16.6188235,16.0435294 C16.5988235,16.7035294 16.3388235,17.2835294 15.8388235,17.7435294 C15.3388235,18.2035294 14.7388235,18.4235294 14.0388235,18.4235294 C13.3388235,18.4235294 12.7588235,18.2035294 12.2788235,17.7435294 C11.8188235,17.2835294 11.5788235,16.7035294 11.5788235,16.0435294 L8.95882353,16.0435294 C8.95882353,18.8235294 11.2188235,21.0635294 14.0388235,21.0635294 C16.8188235,21.1235294 19.2988235,18.7435294 19.2388235,16.0435294 Z" id="5" fill="#000000" fill-rule="nonzero"></path>
            </g>
        </g>
    </g>
</svg>