<?xml version="1.0" encoding="UTF-8"?>
<svg width="15px" height="17px" viewBox="0 0 15 17" version="1.1" xmlns="http://www.w3.org/2000/svg" xmlns:xlink="http://www.w3.org/1999/xlink">
    <title>244F2A91-7D1D-42BC-BFF3-26E329ACF778@1x</title>
    <g id="emotiva" stroke="none" stroke-width="1" fill="none" fill-rule="evenodd" opacity="0.449999988">
        <g id="product2" transform="translate(-947.000000, -523.000000)" fill="#6D787B" fill-rule="nonzero">
            <path d="M960.136931,526.91615 L958.812794,526.91615 C959.075863,526.509844 959.217263,526.036075 959.217263,525.540562 C959.217263,524.861825 958.953144,524.223994 958.473206,523.744144 C957.9934,523.264294 957.355438,523 956.676744,523 C955.998313,523 955.360175,523.264294 954.880325,523.744144 L954.005981,524.618487 L953.131506,523.744144 C952.6517,523.264294 952.01365,523 951.335131,523 C950.656613,523 950.018563,523.264294 949.538756,523.744144 C948.678456,524.604137 948.5658,525.932825 949.199694,526.91615 L947.875163,526.91615 C947.395138,526.91615 947.005981,527.305394 947.005981,527.785462 L947.005981,530.4718 C947.005981,530.951869 947.395138,531.34085 947.875163,531.34085 L947.877306,531.34085 L947.877306,538.297887 C947.877306,539.084994 948.515488,539.723 949.30255,539.723 L958.709413,539.723 C959.496475,539.723 960.134525,539.084994 960.134525,538.297887 L960.134525,531.34085 L960.136931,531.34085 C960.617,531.34085 961.005981,530.951825 961.005981,530.4718 L961.005981,527.785462 C961.005981,527.305394 960.616956,526.91615 960.136931,526.91615 Z M950.798494,526.077025 C950.502613,525.781275 950.502613,525.299762 950.798494,525.00375 C950.941775,524.860469 951.132525,524.781631 951.335131,524.781631 C951.537869,524.781631 951.728488,524.860469 951.871769,525.00375 L953.359663,526.491819 C953.363775,526.496062 953.3678,526.500219 953.371869,526.504375 L953.778219,526.91615 L951.637663,526.91615 L950.798494,526.077025 Z M954.846463,538.034294 L953.165544,538.034294 L953.165544,531.34085 L954.846463,531.34085 L954.846463,538.034294 Z M957.213513,526.077025 L956.374431,526.91615 L954.228669,526.91615 L954.636244,526.508225 C954.64145,526.502975 954.646569,526.497681 954.651994,526.492344 L956.140238,525.00375 C956.283475,524.860469 956.474225,524.781631 956.676744,524.781631 C956.879525,524.781631 957.070231,524.860469 957.213513,525.00375 C957.356838,525.147031 957.435675,525.337737 957.435675,525.540562 C957.435675,525.743081 957.356838,525.933744 957.213513,526.077025 Z" id="icon-rewards"></path>
        </g>
    </g>
</svg>