<?xml version="1.0" encoding="UTF-8"?>
<svg width="24px" height="18px" viewBox="0 0 24 18" version="1.1" xmlns="http://www.w3.org/2000/svg" xmlns:xlink="http://www.w3.org/1999/xlink">
    <title>1C5D04A5-6B01-49E5-A3DB-BAD20BCE99C4@1x</title>
    <g id="emotiva" stroke="none" stroke-width="1" fill="none" fill-rule="evenodd">
        <g id="home3" transform="translate(-1438.000000, -127.000000)" fill="#000000" fill-rule="nonzero">
            <g id="header" transform="translate(1.000000, 0.000000)">
                <g id="icon-cart" transform="translate(1437.000000, 127.000000)">
                    <path d="M24,0 L23.257,2 L21.328,2 L17.854,14 L4.615,14 L1.77635684e-15,3 L16.812,3 L16.248,5 L3.008,5 L5.945,12 L16.373,12 L19.805,0 L24,0 Z M8.5,15 C7.672,15 7,15.672 7,16.5 C7,17.329 7.672,18 8.5,18 C9.328,18 10,17.329 10,16.5 C10,15.672 9.328,15 8.5,15 Z M15.4,8 L13.5,15 C12.672,15 12,15.671 12,16.5 C12,17.329 12.672,18 13.5,18 C14.328,18 15,17.329 15,16.5 C15,15.672 14.328,15 13.5,15 L15.4,8 Z" id="Shape"></path>
                </g>
            </g>
        </g>
    </g>
</svg>