<?xml version="1.0" encoding="UTF-8"?>
<svg width="14px" height="14px" viewBox="0 0 14 14" version="1.1" xmlns="http://www.w3.org/2000/svg" xmlns:xlink="http://www.w3.org/1999/xlink">
    <title>902C87CA-C8D5-42DB-9CE8-EB81B9F8F3E7@1x</title>
    <g id="emotiva" stroke="none" stroke-width="1" fill="none" fill-rule="evenodd">
        <g id="product2" transform="translate(-1262.000000, -526.000000)">
            <g id="icon-help" transform="translate(1262.000000, 526.000000)">
                <path d="M7.10344444,8.80366667 L7.10344444,8.55088889 C7.11355556,8.15655556 7.48766667,7.81277778 8.08422222,7.36788889 C8.17522222,7.287 8.26622222,7.22633333 8.34711111,7.15555556 C8.98411111,6.63988889 9.22677778,6.104 9.22677778,5.38611111 C9.22677778,4.12222222 8.21566667,3.11111111 6.95177778,3.11111111 C5.698,3.11111111 4.66666667,4.12222222 4.66666667,5.38611111 L5.48566667,5.38611111 C5.48566667,4.58733333 6.153,3.92 6.95177778,3.92 C7.75055556,3.92 8.41788889,4.52666667 8.41788889,5.38611111 C8.41788889,5.84111111 8.19544444,6.23544444 7.76066667,6.58933333 L7.55844444,6.75111111 C6.82033333,7.32744444 6.29455556,7.82288889 6.29455556,8.52055556 L6.29455556,8.80366667 L7.10344444,8.80366667 Z M6.73944444,10.5832222 C7.09333333,10.5832222 7.37644444,10.2798889 7.37644444,9.94622222 C7.37644444,9.59233333 7.09333333,9.29911111 6.73944444,9.29911111 C6.37544444,9.29911111 6.09233333,9.59233333 6.09233333,9.94622222 C6.09233333,10.3001111 6.37544444,10.5832222 6.73944444,10.5832222 Z" id="?" fill="#9BA2A5" fill-rule="nonzero"></path>
                <circle id="Oval" stroke="#9BA2A5" stroke-width="1.2" cx="7" cy="7" r="6.4"></circle>
            </g>
        </g>
    </g>
</svg>