<?xml version="1.0" encoding="UTF-8"?>
<svg width="19px" height="22px" viewBox="0 0 19 22" version="1.1" xmlns="http://www.w3.org/2000/svg" xmlns:xlink="http://www.w3.org/1999/xlink">
    <title>icon-warranty</title>
    <g id="emotiva" stroke="none" stroke-width="1" fill="none" fill-rule="evenodd">
        <g id="product2" transform="translate(-1094.000000, -629.000000)" fill="#000000" fill-rule="nonzero">
            <g id="icon-warranty" transform="translate(1094.000000, 629.000000)">
                <path d="M9.02564103,0.537129688 L15.2890667,1.97914888 L13.5963126,3.9274274 L9.02505873,2.92153841 L2.32919768,4.39417365 L2.32919768,11.4170685 C2.32919768,12.174701 2.6338717,12.899215 3.17499854,13.4341288 L3.2863564,13.5385372 L9.02505873,18.6773961 L14.7679541,13.5358349 C15.3374656,13.02943 15.6777341,12.3206177 15.718043,11.5681064 L15.7220844,11.4170685 L15.7220844,7.77011164 L18.0512821,5.23664682 L18.0512821,11.4170685 C18.0512821,12.8296437 17.4712671,14.1776299 16.4538824,15.1491726 L16.3187114,15.273735 L9.02564103,21.8043269 L1.73559902,15.2764373 C0.677549621,14.3356288 0.0534492757,13.0072995 0.00327780488,11.6009258 L0,11.4170685 L0,2.52250679 L9.02564103,0.537129688 Z M17.7475149,0.838804393 L17.7475149,4.24315557 L9.12380087,13.7073464 L4.35348008,9.59967039 L5.87331415,7.83465871 L8.92723242,10.4640628 L17.7475149,0.838804393 Z" id="Combined-Shape"></path>
            </g>
        </g>
    </g>
</svg>