<svg xmlns="http://www.w3.org/2000/svg" width="55" height="60">
    <path fill="#FFF" fill-rule="evenodd" d="M49.4 41.863v9.399h1.733a.868.868 0 0 1 0 1.738H.865a.868.868 0 0 1-.866-.869c0-.48.388-.869.866-.869h1.734V41.85a5.046 5.046 0 0 1-2.6-4.496v-7.823a4.344 4.344 0 0 1 4.333-4.346h3.467v-8.692c0-.481.388-.87.867-.87h5.2c.478 0 .866.389.866.87v8.692h7.801V14.754c0-.48.388-.869.866-.869h5.2c.479 0 .867.389.867.869v10.431h7.8v-8.692c0-.481.388-.87.867-.87h5.2c.479 0 .867.389.867.87v8.692h3.467A4.344 4.344 0 0 1 52 29.531v7.823a5.236 5.236 0 0 1-2.6 4.509zM4.332 51.262H47.67v-8.765c-.086.014-.173.018-.26.028l-.087.01c-.24.024-.482.031-.724.021h-.006a5.222 5.222 0 0 1-1.474-.278c-.037-.012-.072-.029-.109-.042a5.182 5.182 0 0 1-.536-.231c-.062-.03-.122-.063-.183-.096a5.15 5.15 0 0 1-.446-.276c-.059-.039-.118-.076-.174-.116a5.435 5.435 0 0 1-.548-.468 5.226 5.226 0 0 1-1.523-3.695v-3.33a1.898 1.898 0 0 0-1.244-1.807c-.021-.006-.041-.014-.062-.019a1.275 1.275 0 0 0-.194-.036 1.45 1.45 0 0 0-.382-.009c-.04.005-.086.006-.127.013a1.746 1.746 0 0 0-.256.065c-.031.009-.059.015-.087.026-.091.036-.18.08-.265.132-.019.011-.039.019-.057.03a1.724 1.724 0 0 0-.793 1.458v1.738c0 2.881-2.328 5.216-5.2 5.216-2.872 0-5.2-2.335-5.2-5.216v-1.591a1.899 1.899 0 0 0-1.252-1.807c-.02-.006-.04-.014-.062-.019a1.285 1.285 0 0 0-.193-.036 1.501 1.501 0 0 0-.163-.017 1.79 1.79 0 0 0-.22.008c-.038.004-.084.006-.125.012a1.774 1.774 0 0 0-.26.068c-.024.008-.049.013-.074.023a1.688 1.688 0 0 0-.276.137c-.015.01-.032.016-.047.025a1.736 1.736 0 0 0-.795 1.459v5.215c0 2.881-2.328 5.216-5.2 5.216-2.872 0-5.2-2.335-5.2-5.216v-5.068a1.898 1.898 0 0 0-1.245-1.807c-.021-.006-.04-.014-.062-.019a1.262 1.262 0 0 0-.193-.036 1.501 1.501 0 0 0-.163-.017 2.013 2.013 0 0 0-.22.008c-.04.005-.085.006-.127.013a1.797 1.797 0 0 0-.26.065c-.027.009-.054.015-.081.026a1.661 1.661 0 0 0-.267.133c-.018.01-.038.018-.056.029a1.724 1.724 0 0 0-.793 1.458v3.477a5.073 5.073 0 0 1-2.08 4.167c-.049.036-.1.069-.151.103-.157.11-.32.21-.488.302-.046.024-.089.048-.133.069a5.213 5.213 0 0 1-.643.277c-.72.25-1.487.339-2.245.261l-.067-.008c-.086-.01-.173-.014-.26-.028v8.765zm8.667-33.9H9.532v7.823h3.467v-7.823zm14.734-1.739h-3.467v9.562h3.467v-9.562zm14.733 1.739H39v7.823h3.466v-7.823zm7.801 12.169a2.604 2.604 0 0 0-2.6-2.608H4.332a2.604 2.604 0 0 0-2.6 2.608v7.823c0 .924.365 1.811 1.015 2.466.308.304.669.55 1.066.726a3.57 3.57 0 0 0 3.845-.734 3.486 3.486 0 0 0 1.008-2.458v-3.477a3.471 3.471 0 0 1 3.719-3.469c.078.006.151.029.227.04.113.014.225.034.336.06.086.021.165.049.251.078.147.046.29.102.428.168l.053.028a3.47 3.47 0 0 1 1.919 3.095v5.215a3.472 3.472 0 0 0 3.467 3.477 3.472 3.472 0 0 0 3.467-3.477v-5.215a3.46 3.46 0 0 1 1.578-2.915c.054-.032.113-.055.168-.086.149-.091.305-.169.466-.234.076-.03.155-.048.234-.072a3.41 3.41 0 0 1 .442-.113c.098-.017.199-.021.294-.029.096-.008.188-.028.284-.028.046 0 .091.011.132.013.04.001.08-.005.121-.005.078.006.151.029.227.04.113.014.225.034.336.06.086.021.165.049.251.078.147.046.29.102.428.168l.053.028a3.47 3.47 0 0 1 1.919 3.095v1.738a3.472 3.472 0 0 0 3.467 3.477 3.472 3.472 0 0 0 3.467-3.477v-1.738a3.455 3.455 0 0 1 1.578-2.914c.054-.033.112-.055.166-.087.15-.09.306-.169.468-.234.076-.03.155-.048.234-.072a3.33 3.33 0 0 1 .442-.113c.098-.017.199-.021.294-.029.096-.008.188-.028.284-.028.046 0 .09.011.132.013.04.001.08-.005.121-.005.078.006.151.029.227.04.113.014.225.034.336.06.086.021.165.049.251.078.147.046.29.102.428.168l.053.028a3.47 3.47 0 0 1 1.919 3.095v3.477c0 .924.365 1.811 1.015 2.466a3.54 3.54 0 0 0 3.845.724 3.5 3.5 0 0 0 2.074-3.19v-7.823zm-9.534-15.646A4.345 4.345 0 0 1 36.4 9.539c0-2.087 3.015-6.571 3.62-7.448a.899.899 0 0 1 1.427 0c.604.877 3.619 5.361 3.619 7.448a4.345 4.345 0 0 1-4.333 4.346zm0-9.729c-1.247 1.955-2.6 4.433-2.6 5.383a2.603 2.603 0 0 0 2.6 2.607c1.436 0 2.6-1.167 2.6-2.607 0-.95-1.353-3.428-2.6-5.383zm-14.734 7.99A4.345 4.345 0 0 1 21.666 7.8c0-2.086 3.015-6.57 3.62-7.448a.899.899 0 0 1 1.427 0c.605.878 3.62 5.362 3.62 7.448a4.345 4.345 0 0 1-4.334 4.346zm0-9.729c-1.247 1.955-2.6 4.434-2.6 5.383a2.604 2.604 0 0 0 2.6 2.608c1.437 0 2.6-1.168 2.6-2.608 0-.949-1.352-3.428-2.6-5.383zM11.266 13.885a4.346 4.346 0 0 1-4.334-4.346c0-2.087 3.016-6.571 3.621-7.448a.897.897 0 0 1 1.426 0c.605.877 3.62 5.361 3.62 7.448a4.345 4.345 0 0 1-4.333 4.346zm0-9.729c-1.247 1.955-2.6 4.433-2.6 5.383a2.603 2.603 0 0 0 2.6 2.607c1.436 0 2.6-1.167 2.6-2.607 0-.95-1.353-3.428-2.6-5.383z"/>
    <path fill="#4046D4" fill-rule="evenodd" d="M41.5 33C48.956 33 55 39.044 55 46.5S48.956 60 41.5 60 28 53.956 28 46.5 34.044 33 41.5 33z"/>
</svg>
