<svg xmlns="http://www.w3.org/2000/svg" width="56" height="59">
    <path fill="#FFF" fill-rule="evenodd" d="M45.899 53H7.101A7.1 7.1 0 0 1 0 45.899V7.101A7.1 7.1 0 0 1 7.101 0h38.798A7.1 7.1 0 0 1 53 7.101v38.798A7.1 7.1 0 0 1 45.899 53zm4.896-45.899c0-2.7-2.196-4.896-4.896-4.896H7.101a4.901 4.901 0 0 0-4.896 4.896v38.798c0 2.7 2.196 4.896 4.896 4.896h38.798c2.7 0 4.896-2.196 4.896-4.896V7.101zm-6.419 4.616a3.093 3.093 0 1 1 0-6.187 3.093 3.093 0 0 1 0 6.187zM26.5 39.654c-7.265 0-13.154-5.889-13.154-13.154S19.235 13.346 26.5 13.346 39.654 19.235 39.654 26.5 33.765 39.654 26.5 39.654zm0-24.103c-6.037 0-10.949 4.912-10.949 10.949S20.463 37.449 26.5 37.449 37.449 32.537 37.449 26.5 32.537 15.551 26.5 15.551z"/>
    <path fill="#4046D4" fill-rule="evenodd" d="M43 33c7.18 0 13 5.82 13 13s-5.82 13-13 13-13-5.82-13-13 5.82-13 13-13z"/>
</svg>
