<svg xmlns="http://www.w3.org/2000/svg" width="58" height="59">
    <path fill="#FFF" fill-rule="evenodd" d="M52.473 7.276l-2.294 2.237.542 3.157a1.73 1.73 0 0 1-.692 1.705 1.731 1.731 0 0 1-1.835.133l-2.837-1.49-2.835 1.492a1.732 1.732 0 0 1-1.835-.132 1.732 1.732 0 0 1-.694-1.705l.541-3.158-2.295-2.235a1.733 1.733 0 0 1-.442-1.787 1.732 1.732 0 0 1 1.407-1.186l3.17-.462L43.791.972A1.734 1.734 0 0 1 45.354 0c.668 0 1.267.372 1.563.971l1.418 2.873 3.171.459a1.734 1.734 0 0 1 1.407 1.186c.207.636.038 1.32-.44 1.787zm-4.605-1.408a1.745 1.745 0 0 1-1.313-.953l-1.201-2.432-1.199 2.432a1.742 1.742 0 0 1-1.312.954l-2.684.391 1.943 1.893c.41.4.598.977.501 1.542l-.458 2.673 2.401-1.262a1.742 1.742 0 0 1 1.622-.001l2.401 1.262-.459-2.673a1.74 1.74 0 0 1 .5-1.543l1.942-1.894-2.684-.389zm-5.399 25.541v8.735c0 2.537-.385 5.052-1.144 7.474l-1.46 4.656a1.038 1.038 0 0 1-.988.726l-.024-.001V53h-17.33c-.319 0-.634-.147-.837-.424l-3.712-5.081a14.167 14.167 0 0 1-2.347-5.065l-1.895-7.855a3.644 3.644 0 0 1 1.909-4.126 3.641 3.641 0 0 1 4.869 1.528l.977 1.81V19.84a3.528 3.528 0 0 1 3.524-3.524 3.528 3.528 0 0 1 3.524 3.524v4.949a3.517 3.517 0 0 1 4.657 1.743 3.507 3.507 0 0 1 1.775-.481c1.5 0 2.783.942 3.291 2.265a3.507 3.507 0 0 1 1.687-.431 3.528 3.528 0 0 1 3.524 3.524zm-4.978 0v3.038a1.035 1.035 0 1 1-2.07 0v-4.872c0-.802-.652-1.454-1.454-1.454-.802 0-1.454.652-1.454 1.454v4.872a1.035 1.035 0 1 1-2.07 0v-6.449a1.455 1.455 0 0 0-2.908 0v6.449a1.035 1.035 0 1 1-2.07 0V19.84a1.455 1.455 0 0 0-2.908 0V37.882a1.037 1.037 0 0 1-1.946.492l-2.923-5.413a1.581 1.581 0 0 0-2.114-.664 1.583 1.583 0 0 0-.83 1.792l1.895 7.855a12.135 12.135 0 0 0 2.006 4.33l3.713 5.08.016.024h15.602l1.373-4.38a22.865 22.865 0 0 0 1.05-6.854v-8.735c0-.802-.652-1.454-1.454-1.454-.802 0-1.454.652-1.454 1.454zM31.324 9.513l.542 3.157a1.732 1.732 0 0 1-.693 1.705 1.73 1.73 0 0 1-1.835.133l-2.836-1.49-2.836 1.492a1.735 1.735 0 0 1-1.835-.133 1.732 1.732 0 0 1-.694-1.704l.541-3.158-2.295-2.235a1.735 1.735 0 0 1-.441-1.787 1.731 1.731 0 0 1 1.406-1.186l3.171-.462L24.936.972A1.731 1.731 0 0 1 26.498 0h.001c.668 0 1.266.372 1.562.971l1.419 2.873 3.171.459c.661.096 1.2.551 1.407 1.186.206.636.037 1.32-.441 1.787l-2.293 2.237zm-2.312-3.645a1.744 1.744 0 0 1-1.312-.953l-1.201-2.432-1.2 2.432a1.74 1.74 0 0 1-1.312.954l-2.684.391 1.943 1.893c.411.4.598.976.502 1.542l-.458 2.673 2.4-1.262a1.74 1.74 0 0 1 1.622-.001l2.401 1.262-.459-2.673a1.742 1.742 0 0 1 .501-1.543l1.942-1.894-2.685-.389zM12.468 9.513l.543 3.157a1.734 1.734 0 0 1-.693 1.705 1.73 1.73 0 0 1-1.835.133l-2.836-1.49-2.836 1.492a1.732 1.732 0 0 1-1.835-.132 1.732 1.732 0 0 1-.694-1.705l.541-3.158L.528 7.28a1.733 1.733 0 0 1-.442-1.787 1.734 1.734 0 0 1 1.407-1.186l3.17-.462L6.08.972A1.734 1.734 0 0 1 7.643 0c.668 0 1.267.372 1.563.971l1.419 2.873 3.17.459a1.734 1.734 0 0 1 1.407 1.186c.207.636.038 1.32-.44 1.787l-2.294 2.237zm-2.311-3.645a1.742 1.742 0 0 1-1.312-.953L7.643 2.483 6.444 4.915a1.74 1.74 0 0 1-1.312.954l-2.684.391L4.39 8.153c.412.4.599.977.502 1.542l-.458 2.673 2.401-1.262a1.74 1.74 0 0 1 1.622-.001l2.401 1.262-.459-2.673a1.739 1.739 0 0 1 .501-1.543l1.941-1.894-2.684-.389z"/>
    <path fill="#005DAA" fill-rule="evenodd" d="M45 33c7.18 0 13 5.82 13 13s-5.82 13-13 13-13-5.82-13-13 5.82-13 13-13z"/>
</svg>
