<svg xmlns="http://www.w3.org/2000/svg" width="56" height="59">
    <path fill="#FFF" fill-rule="evenodd" d="M45.899 53H7.101A7.1 7.1 0 0 1 0 45.899V7.101A7.1 7.1 0 0 1 7.101 0h38.798A7.1 7.1 0 0 1 53 7.101v38.798A7.1 7.1 0 0 1 45.899 53zm4.896-45.899c0-2.7-2.196-4.896-4.896-4.896H7.101a4.901 4.901 0 0 0-4.896 4.896v38.798c0 2.7 2.196 4.896 4.896 4.896h38.798c2.7 0 4.896-2.196 4.896-4.896V7.101zM33.913 17.219h-3.61a2.855 2.855 0 0 0-2.852 2.852v3.439h2.68a1.102 1.102 0 0 1 0 2.205h-2.68v11.168a1.103 1.103 0 0 1-2.205 0V25.715h-2.72a1.102 1.102 0 0 1 0-2.205h2.72v-3.439a5.063 5.063 0 0 1 5.057-5.057h3.61a1.103 1.103 0 0 1 0 2.205z"/>
    <path fill="#000018" fill-rule="evenodd" d="M43 33c7.18 0 13 5.82 13 13s-5.82 13-13 13-13-5.82-13-13 5.82-13 13-13z"/>
</svg>
