<svg xmlns="http://www.w3.org/2000/svg" width="14" height="13">
    <path fill="#FFF" fill-rule="evenodd" d="M4.593 7.652l3.649-3.39a.56.56 0 0 1 .773 0l.388.36a.472.472 0 0 1 0 .718L5.754 8.73a.562.562 0 0 1-.774 0l-.387-.359c-.221-.205-.221-.539 0-.719zm3.317.976a.564.564 0 0 0-.774 0l-2.985 2.774c-.124.116-.321.091-.387 0L1.747 9.527c-.125-.116-.098-.299 0-.359l2.985-2.774a.474.474 0 0 0 0-.72l-.387-.359a.564.564 0 0 0-.774 0L.613 8.012c-.867.805-.767 1.932-.055 2.594l2.018 1.875c.778.723 2 .683 2.791-.052l2.93-2.722a.473.473 0 0 0 0-.719l-.387-.36zm5.528-6.215L11.393.512c-.772-.717-1.989-.679-2.709.025L5.699 3.286a.473.473 0 0 0 0 .719l.387.36a.564.564 0 0 0 .774 0l2.985-2.774c.124-.116.321-.091.387 0l2.017 1.875c.124.115.098.298 0 .359L9.292 6.624a.474.474 0 0 0 0 .72l.387.36a.564.564 0 0 0 .774 0l2.985-2.774c.719-.669.775-1.797 0-2.517z"/>
</svg>
