<svg xmlns="http://www.w3.org/2000/svg" width="55" height="59">
    <path fill="#FFF" fill-rule="evenodd" d="M44.947 45.238C39.974 50.244 33.362 53 26.329 53c-7.033 0-13.645-2.756-18.617-7.762C2.739 40.233 0 33.579 0 26.5c0-7.078 2.739-13.733 7.712-18.738C12.684 2.756 19.296 0 26.329 0c7.033 0 13.645 2.756 18.618 7.762 4.972 5.005 7.711 11.66 7.711 18.738 0 7.079-2.739 13.733-7.711 18.738zM26.329 1.946C12.877 1.946 1.934 12.961 1.934 26.5c0 13.539 10.943 24.554 24.395 24.554S50.725 40.039 50.725 26.5c0-13.539-10.944-24.554-24.396-24.554zm-1.652 23.695h3.305c3.328 0 6.037 2.726 6.037 6.076 0 3.351-2.709 6.077-6.037 6.077h-.573v3.902c0 .6-.484 1.087-1.08 1.087-.595 0-1.08-.487-1.08-1.087v-3.902h-3.877c-.596 0-1.08-.488-1.08-1.087 0-.6.484-1.087 1.08-1.087h6.61c2.138 0 3.877-1.751 3.877-3.903s-1.739-3.902-3.877-3.902h-3.305c-3.329 0-6.038-2.726-6.038-6.077 0-3.35 2.709-6.076 6.038-6.076h.572V11.76c0-.6.485-1.087 1.08-1.087.596 0 1.08.487 1.08 1.087v3.902h3.877c.596 0 1.08.488 1.08 1.087s-.484 1.087-1.08 1.087h-6.609c-2.138 0-3.878 1.751-3.878 3.902 0 2.152 1.74 3.903 3.878 3.903z"/>
    <path fill="#005DAA" fill-rule="evenodd" d="M42 33c7.18 0 13 5.82 13 13s-5.82 13-13 13-13-5.82-13-13 5.82-13 13-13z"/>
</svg>
