<svg xmlns="http://www.w3.org/2000/svg" width="54" height="59">
    <path fill="#FFF" fill-rule="evenodd" d="M36.219 53H15.781C7.079 53 0 45.819 0 36.993V16.007C0 7.181 7.079 0 15.781 0h10.972c8.702 0 15.781 7.181 15.781 16.007v.247c0 1.348 1.081 2.445 2.41 2.445h2.469c2.529 0 4.587 2.088 4.587 4.654v13.64C52 45.819 44.921 53 36.219 53zM15.781 2.208c-7.501 0-13.604 6.19-13.604 13.799v20.986c0 7.609 6.103 13.799 13.604 13.799h20.438c7.501 0 13.604-6.19 13.604-13.799v-13.64c0-1.348-1.081-2.445-2.41-2.445h-2.469c-2.53 0-4.587-2.088-4.587-4.654v-.247c0-7.609-6.103-13.799-13.604-13.799H15.781zM35.84 40.112H16.409c-2.18 0-3.953-1.798-3.953-4.01 0-2.211 1.773-4.01 3.953-4.01H35.84c2.18 0 3.953 1.799 3.953 4.01 0 2.212-1.773 4.01-3.953 4.01zm-19.431-5.811c-.979 0-1.776.808-1.776 1.801 0 .994.797 1.802 1.776 1.802H35.84c.979 0 1.776-.808 1.776-1.802 0-.993-.797-1.801-1.776-1.801H16.409zm11.709-13.393H16.409c-2.18 0-3.953-1.799-3.953-4.01 0-2.212 1.773-4.011 3.953-4.011h11.709c2.179 0 3.953 1.799 3.953 4.011 0 2.211-1.774 4.01-3.953 4.01zm-11.709-5.812c-.979 0-1.776.808-1.776 1.802 0 .993.797 1.801 1.776 1.801h11.709c.979 0 1.776-.808 1.776-1.801 0-.994-.797-1.802-1.776-1.802H16.409z"/>
    <path fill="#005DAA" fill-rule="evenodd" d="M41 33c7.18 0 13 5.82 13 13s-5.82 13-13 13-13-5.82-13-13 5.82-13 13-13z"/>
</svg>
