<svg xmlns="http://www.w3.org/2000/svg" width="13" height="13">
    <path fill="#FFF" fill-rule="evenodd" d="M12.987 5.255a4.492 4.492 0 0 0-.195-1.185 4.834 4.834 0 0 0-.401-.939 5.214 5.214 0 0 0-.502-.741 5.665 5.665 0 0 0-.551-.588c-.762-.708-1.704-1.211-2.7-1.5A7.739 7.739 0 0 0 6.532 0h-.084a7.823 7.823 0 0 0-1.572.168C3.763.404 2.695.895 1.828 1.636a5.806 5.806 0 0 0-.556.542 5.483 5.483 0 0 0-.525.688 5.008 5.008 0 0 0-.435.85 4.54 4.54 0 0 0-.259 2.426c.089.531.274 1.044.536 1.514.216.39.484.75.79 1.073.15.159.31.309.476.45l.092.075.072.058-.901 3.419-.005.031a.214.214 0 0 0 .021.12.217.217 0 0 0 .293.09l.025-.017 3.181-2.389.02.004a7.911 7.911 0 0 0 2.087.217c.445-.014.89-.066 1.326-.156a7.091 7.091 0 0 0 2.451-1.001 5.893 5.893 0 0 0 1.541-1.45c.335-.461.596-.976.754-1.525.131-.454.19-.928.175-1.4zm-2.397-1.8a1.91 1.91 0 0 1-.044.16c-.687.635-1.299 1.202-1.836 1.702-.228.213-.452.421-.674.624-.221.202-.418.384-.591.544-.173.16-.314.29-.421.387a2.26 2.26 0 0 1-.168.146.247.247 0 0 0-.068.047 6.984 6.984 0 0 0-.12.107l-.176.154-.742-2.041-3.359 2.258.029-.122a.56.56 0 0 0 .017-.081c.004-.025.002-.038-.004-.038a1.58 1.58 0 0 1 .154-.156A356.041 356.041 0 0 0 3.62 6.15c.228-.219.459-.442.695-.672l1.9-1.823.812 2.123c.663-.439 1.253-.831 1.771-1.176.224-.147.442-.291.653-.432.212-.14.4-.267.568-.377l.403-.266c.101-.067.154-.101.159-.101.008 0 .011.01.009.029z"/>
</svg>
