<svg xmlns="http://www.w3.org/2000/svg" width="16" height="13">
    <path fill="#FFF" fill-rule="evenodd" d="M16 1.539a6.585 6.585 0 0 1-1.886.517A3.296 3.296 0 0 0 15.558.24a6.572 6.572 0 0 1-2.084.796A3.278 3.278 0 0 0 11.078 0a3.282 3.282 0 0 0-3.199 4.03A9.322 9.322 0 0 1 1.114.601a3.28 3.28 0 0 0 1.015 4.381 3.269 3.269 0 0 1-1.486-.41v.041a3.283 3.283 0 0 0 2.633 3.218 3.294 3.294 0 0 1-1.482.056 3.283 3.283 0 0 0 3.066 2.279A6.584 6.584 0 0 1 0 11.525 9.284 9.284 0 0 0 5.032 13c6.038 0 9.34-5.001 9.34-9.338 0-.142-.004-.283-.01-.424A6.665 6.665 0 0 0 16 1.539z"/>
</svg>
