<?xml version="1.0" encoding="UTF-8"?>
<svg width="70px" height="63px" viewBox="0 0 70 63" version="1.1" xmlns="http://www.w3.org/2000/svg" xmlns:xlink="http://www.w3.org/1999/xlink">
    <title>B7144B9C-1F42-495A-9D15-3F27754AE403</title>
    <g id="emotiva" stroke="none" stroke-width="1" fill="none" fill-rule="evenodd">
        <g id="product6" transform="translate(-348.000000, -1118.000000)" fill-rule="nonzero">
            <g id="warning-sign" transform="translate(348.000000, 1118.000000)">
                <path d="M5.83284823,61.6814969 C4.17682463,61.6782599 2.64670445,60.7971279 1.81268268,59.3664525 C0.978660909,57.935777 0.965825868,56.1701336 1.7789605,54.7274844 L30.8756757,3.50087318 C31.2805094,2.78036773 31.8700551,2.1807752 32.5836175,1.76382536 C33.2973677,1.35593641 34.1051567,1.14086013 34.9272349,1.14086013 C36.6066869,1.13012909 38.159029,2.03387767 38.9787942,3.49970894 L68.0743451,54.7263202 C68.8872062,56.1689537 68.8744244,57.9343703 68.0407601,59.3650829 C67.2070958,60.7957955 65.6774953,61.6773745 64.0216216,61.6814969 L5.83284823,61.6814969 Z" id="Path" fill="#FFCC5C"></path>
                <path d="M69.0883992,54.1476923 L39.9881913,2.96765073 C38.953605,1.14726406 37.0210774,0.0227547173 34.9272349,0.0227547173 C32.8333924,0.0227547173 30.9008649,1.14726406 29.8662786,2.96765073 L0.766070686,54.1476923 C-0.258317477,55.9496956 -0.247205411,58.1604834 0.795245328,59.9520982 C1.83769607,61.743713 3.75420598,62.845738 5.82702703,62.845738 L64.033264,62.845738 C66.1060851,62.845738 68.022595,61.743713 69.0650457,59.9520982 C70.1074965,58.1604834 70.1186085,55.9496956 69.0942204,54.1476923 L69.0883992,54.1476923 Z M67.0463202,58.7813721 C66.4271332,59.8596578 65.2766728,60.5224617 64.033264,60.5172862 L5.82702703,60.5172862 C4.58492811,60.5153847 3.43727347,59.8539945 2.81290595,58.7802262 C2.18853843,57.7064578 2.18140789,56.3818835 2.79417879,55.3014553 L31.9002079,4.12141372 C32.5210237,3.02941195 33.6804118,2.35488575 34.9365489,2.35488575 C36.1926859,2.35488575 37.352074,3.02941195 37.9728898,4.12141372 L67.0789189,55.3014553 C67.6951027,56.3827664 67.6826528,57.7117942 67.0463202,58.7813721 Z" id="Shape" fill="#000000"></path>
                <path d="M34.9441669,17.1725581 C33.5918433,17.1725581 32.3017909,17.7409803 31.3888556,18.7386418 C30.4759204,19.7363034 30.0240859,21.0715922 30.1436253,22.4186221 L31.6796041,41.4272106 C31.8341572,43.118639 33.2539906,44.412522 34.9524632,44.4097458 C36.6509357,44.4069607 38.066525,43.1084357 38.2155391,41.4165103 L39.7466541,22.4254314 C39.8685576,21.0768741 39.4174854,19.7392498 38.5038246,18.7399044 C37.5901639,17.740559 36.2982225,17.1717071 34.9441669,17.1725581 L34.9441669,17.1725581 Z" id="Path" fill="#000000"></path>
                <path d="M34.9441669,46.355183 C32.7952178,46.355183 31.0531504,48.0972504 31.0531504,50.2461995 C31.0531504,52.3951486 32.7952178,54.137216 34.9441669,54.137216 C37.093116,54.137216 38.8351834,52.3951486 38.8351834,50.2461995 C38.8351834,48.0972504 37.093116,46.355183 34.9441669,46.355183 Z" id="Path" fill="#000000"></path>
            </g>
        </g>
    </g>
</svg>